<svg width="200" height="200" viewBox="0 0 200 200" fill="none" xmlns="http://www.w3.org/2000/svg">
<line x1="19" y1="1" x2="19" y2="197" stroke="black" stroke-opacity="0.1" stroke-width="2" stroke-linecap="square"/>
<line x1="39" y1="1" x2="39" y2="197" stroke="black" stroke-opacity="0.1" stroke-width="2" stroke-linecap="square"/>
<line x1="59" y1="1" x2="59" y2="197" stroke="black" stroke-opacity="0.1" stroke-width="2" stroke-linecap="square"/>
<line x1="79" y1="1" x2="79" y2="197" stroke="black" stroke-opacity="0.1" stroke-width="2" stroke-linecap="square"/>
<line x1="99" y1="1" x2="99" y2="197" stroke="black" stroke-opacity="0.2" stroke-width="2" stroke-linecap="square"/>
<line x1="119" y1="1" x2="119" y2="197" stroke="black" stroke-opacity="0.1" stroke-width="2" stroke-linecap="square"/>
<line x1="139" y1="1" x2="139" y2="197" stroke="black" stroke-opacity="0.1" stroke-width="2" stroke-linecap="square"/>
<line x1="159" y1="1" x2="159" y2="197" stroke="black" stroke-opacity="0.1" stroke-width="2" stroke-linecap="square"/>
<line x1="179" y1="1" x2="179" y2="197" stroke="black" stroke-opacity="0.1" stroke-width="2" stroke-linecap="square"/>
<line x1="199" y1="1" x2="199" y2="199" stroke="black" stroke-opacity="0.3" stroke-width="2" stroke-linecap="square"/>
<line x1="197" y1="19" x2="1" y2="19" stroke="black" stroke-opacity="0.1" stroke-width="2" stroke-linecap="square"/>
<line x1="197" y1="39" x2="1" y2="39" stroke="black" stroke-opacity="0.1" stroke-width="2" stroke-linecap="square"/>
<line x1="197" y1="59" x2="1" y2="59" stroke="black" stroke-opacity="0.1" stroke-width="2" stroke-linecap="square"/>
<line x1="197" y1="79" x2="1" y2="79" stroke="black" stroke-opacity="0.1" stroke-width="2" stroke-linecap="square"/>
<line x1="197" y1="99" x2="1" y2="99" stroke="black" stroke-opacity="0.2" stroke-width="2" stroke-linecap="square"/>
<line x1="197" y1="119" x2="1" y2="119" stroke="black" stroke-opacity="0.1" stroke-width="2" stroke-linecap="square"/>
<line x1="197" y1="139" x2="1" y2="139" stroke="black" stroke-opacity="0.1" stroke-width="2" stroke-linecap="square"/>
<line x1="197" y1="159" x2="1" y2="159" stroke="black" stroke-opacity="0.1" stroke-width="2" stroke-linecap="square"/>
<line x1="197" y1="179" x2="1" y2="179" stroke="black" stroke-opacity="0.1" stroke-width="2" stroke-linecap="square"/>
<line x1="197" y1="199" x2="1" y2="199" stroke="black" stroke-opacity="0.3" stroke-width="2" stroke-linecap="square"/>
</svg>
