<svg width="16" height="16" viewBox="0 0 16 16" fill="none" xmlns="http://www.w3.org/2000/svg">
<path d="M7.30885 4.37923L5.6092 2.41809L2.68256 2L3.10065 4.92664L5.23288 6.77458L7.30885 4.37923Z" fill="#F6DD66"/>
<path d="M7.70425 8.91643L9.37202 10.3618L11.0444 8.68946L9.67524 7.10968L7.70425 8.91643Z" fill="#F6DD66"/>
<path d="M12.7167 8.68946L12.8458 8.81854C13.2363 9.20906 13.2363 9.84223 12.8458 10.2328L12.2987 10.7799L14.263 12.183C14.7667 12.5428 14.8268 13.2688 14.3891 13.7066C13.9514 14.1443 13.2254 14.0842 12.8656 13.5805L11.4625 11.6161L10.9153 12.1633C10.5248 12.5538 9.89162 12.5538 9.50109 12.1633L9.37202 12.0342L12.7167 8.68946Z" fill="#F6DD66"/>
<path d="M10.5734 2.41809L13.5 2L13.0819 4.92664L6.81054 10.3618L5.13817 8.68946L10.5734 2.41809Z" fill="#F6DD66"/>
<path d="M3.46581 8.68946L6.81054 12.0342L6.68146 12.1633C6.29094 12.5538 5.65777 12.5538 5.26725 12.1633L3.33673 10.2328C2.94621 9.84223 2.94621 9.20906 3.33673 8.81854L3.46581 8.68946Z" fill="#F6DD66"/>
<path d="M3.8839 10.7799L4.72008 11.6161L3.31696 13.5805C2.95716 14.0842 2.23116 14.1443 1.79344 13.7066C1.35572 13.2688 1.41581 12.5428 1.91953 12.183L3.8839 10.7799Z" fill="#F6DD66"/>
</svg>
