<svg width="16" height="16" viewBox="0 0 16 16" fill="none" xmlns="http://www.w3.org/2000/svg">
<path fill-rule="evenodd" clip-rule="evenodd" d="M8.83328 5.60303C8.37583 6.05651 7.62417 6.05651 7.16672 5.60303L6.33344 4.77698C6.01309 4.45941 5.57349 4.26664 5.08333 4.26664C4.11683 4.26664 3.33333 5.02774 3.33333 5.96661C3.33333 6.58092 3.53917 7.12118 4.07601 7.79079C4.67316 8.53563 5.54248 9.27854 6.78139 10.3208L6.8028 10.3388C7.18008 10.6562 7.58266 10.9949 8 11.3569C8.41733 10.9949 8.81992 10.6562 9.19719 10.3388L9.21861 10.3208C10.4575 9.27854 11.3268 8.53563 11.924 7.79079C12.4608 7.12118 12.6667 6.58094 12.6667 5.96663C12.6667 5.02776 11.8832 4.26664 10.9167 4.26664C10.4265 4.26664 9.98691 4.45941 9.66656 4.77698L8.83328 5.60303ZM8.83989 13.6799C8.36859 14.1067 7.63141 14.1067 7.16011 13.6799C6.50708 13.0885 5.86394 12.5475 5.25387 12.0342C2.87565 10.0335 1 8.45557 1 5.96663C1 3.77593 2.82817 2 5.08333 2C6.16596 2 7.15018 2.40928 7.88097 3.07725C7.92143 3.11424 7.96112 3.15202 8 3.19056C8.03888 3.15202 8.07857 3.11424 8.11903 3.07725C8.84982 2.40928 9.83404 2 10.9167 2C13.1718 2 15 3.77591 15 5.96661C15 8.45556 13.1244 10.0335 10.7461 12.0342C10.1361 12.5475 9.49292 13.0885 8.83989 13.6799Z" fill="#F6DD66"/>
</svg>
