<svg width="16" height="16" viewBox="0 0 16 16" fill="none" xmlns="http://www.w3.org/2000/svg">
<path fill-rule="evenodd" clip-rule="evenodd" d="M2 14L2 6C2.55228 6 3 5.55228 3 5C3 4.44772 2.55228 4 2 4H0V6V14V16H2H10H12V14C12 13.4477 11.5523 13 11 13C10.4477 13 10 13.4477 10 14L2 14Z" fill="black"/>
<path fill-rule="evenodd" clip-rule="evenodd" d="M6 0H4V2V10V12H6H14H16V10V2V0H14H6ZM14 2L6 2V10L14 10V2Z" fill="black"/>
<path fill-rule="evenodd" clip-rule="evenodd" d="M10 3C9.44772 3 9 3.44772 9 4V5H8C7.44772 5 7 5.44772 7 6C7 6.55228 7.44772 7 8 7H9V8C9 8.55228 9.44772 9 10 9C10.5523 9 11 8.55228 11 8V7H12C12.5523 7 13 6.55228 13 6C13 5.44772 12.5523 5 12 5H11V4C11 3.44772 10.5523 3 10 3Z" fill="black"/>
</svg>
