<svg width="16" height="16" viewBox="0 0 16 16" fill="none" xmlns="http://www.w3.org/2000/svg">
<path fill-rule="evenodd" clip-rule="evenodd" d="M8.99998 3.80005V11C8.99998 11.5523 8.55226 12 7.99998 12C7.44769 12 6.99998 11.5523 6.99998 11V3.77844L4.12008 6.65833C3.73038 7.04804 3.09855 7.04804 2.70884 6.65833C2.31798 6.26747 2.31931 5.63335 2.71181 5.24413L8.00022 0L13.2685 5.24348C13.6601 5.63327 13.6609 6.26698 13.2702 6.65769C12.8801 7.04776 12.2477 7.04776 11.8576 6.65769L8.99998 3.80005Z" fill="#F6DD66"/>
<path fill-rule="evenodd" clip-rule="evenodd" d="M2 16H1V10C1 9.44772 1.44772 9 2 9C2.55228 9 3 9.44772 3 10L3 14L13 14L13 10C13 9.44772 13.4477 9 14 9C14.5523 9 15 9.44772 15 10L15 16L14 16L13 16H3H2Z" fill="#F6DD66"/>
</svg>
