<svg width="16" height="16" viewBox="0 0 16 16" fill="none" xmlns="http://www.w3.org/2000/svg">
<mask id="mask0_346_529" style="mask-type:alpha" maskUnits="userSpaceOnUse" x="0" y="0" width="16" height="16">
<circle cx="8" cy="8" r="8" fill="#D9D9D9"/>
</mask>
<g mask="url(#mask0_346_529)">
<path fill-rule="evenodd" clip-rule="evenodd" d="M8 16C12.4183 16 16 12.4183 16 8C16 3.58172 12.4183 0 8 0C3.58172 0 0 3.58172 0 8C0 12.4183 3.58172 16 8 16ZM8 14C11.3137 14 14 11.3137 14 8C14 4.68629 11.3137 2 8 2C4.68629 2 2 4.68629 2 8C2 11.3137 4.68629 14 8 14Z" fill="#F6DD66"/>
<path fill-rule="evenodd" clip-rule="evenodd" d="M14.9573 6C14.5704 8.24998 11.6031 10 8 10C4.3969 10 1.42962 8.24998 1.04272 6C1.01449 6.16417 1 6.331 1 6.5C1 8.98528 4.13401 11 8 11C11.866 11 15 8.98528 15 6.5C15 6.331 14.9855 6.16417 14.9573 6Z" fill="#F6DD66"/>
<path fill-rule="evenodd" clip-rule="evenodd" d="M14.9573 2C14.5704 4.24998 11.6031 6 8 6C4.3969 6 1.42962 4.24998 1.04272 2C1.01449 2.16417 1 2.331 1 2.5C1 4.98528 4.13401 7 8 7C11.866 7 15 4.98528 15 2.5C15 2.331 14.9855 2.16417 14.9573 2Z" fill="#F6DD66"/>
<path fill-rule="evenodd" clip-rule="evenodd" d="M9.5 15.9542C7.25002 15.5397 5.5 12.3605 5.5 8.5C5.5 4.63954 7.25002 1.46031 9.5 1.04577C9.33583 1.01553 9.169 1 9 1C6.51472 1 4.5 4.35786 4.5 8.5C4.5 12.6421 6.51472 16 9 16C9.169 16 9.33583 15.9845 9.5 15.9542Z" fill="#F6DD66"/>
<path fill-rule="evenodd" clip-rule="evenodd" d="M6.5 1.04577C8.74998 1.46031 10.5 4.63954 10.5 8.5C10.5 12.3605 8.74998 15.5397 6.5 15.9542C6.66417 15.9845 6.831 16 7 16C9.48528 16 11.5 12.6421 11.5 8.5C11.5 4.35786 9.48528 1 7 1C6.831 1 6.66417 1.01553 6.5 1.04577Z" fill="#F6DD66"/>
</g>
</svg>
