<svg width="16" height="16" viewBox="0 0 16 16" fill="none" xmlns="http://www.w3.org/2000/svg">
<path fill-rule="evenodd" clip-rule="evenodd" d="M8.71424 6.17918C8.32214 6.57932 7.67786 6.57932 7.28576 6.17918L6.57152 5.45031C6.29694 5.1701 5.92014 5 5.5 5C4.67157 5 4 5.67157 4 6.5C4 7.04204 4.17644 7.51875 4.63658 8.10959C5.14842 8.76681 5.89356 9.42233 6.95548 10.342L6.97383 10.3579C7.29721 10.6379 7.64228 10.9368 8 11.2562C8.35771 10.9368 8.70279 10.6379 9.02616 10.3579L9.04452 10.342C10.1064 9.42233 10.8516 8.76681 11.3634 8.10959C11.8236 7.51875 12 7.04206 12 6.50002C12 5.67159 11.3284 5 10.5 5C10.0799 5 9.70306 5.1701 9.42848 5.45031L8.71424 6.17918ZM8.7199 13.3059C8.31593 13.6825 7.68407 13.6825 7.2801 13.3059C6.72035 12.7841 6.16909 12.3067 5.64617 11.8538C3.6077 10.0885 2 8.69617 2 6.50002C2 4.56702 3.567 3 5.5 3C6.42796 3 7.27158 3.36114 7.89797 3.95053C7.93266 3.98316 7.96667 4.0165 8 4.05051C8.03333 4.0165 8.06734 3.98316 8.10203 3.95053C8.72842 3.36114 9.57204 3 10.5 3C12.433 3 14 4.567 14 6.5C14 8.69615 12.3923 10.0885 10.3538 11.8538C9.83091 12.3067 9.27965 12.7841 8.7199 13.3059Z" fill="#F6DD66"/>
</svg>
