<?xml version="1.0" encoding="UTF-8"?>
<svg width="64px" height="64px" viewBox="0 0 64 64" version="1.1" xmlns="http://www.w3.org/2000/svg" xmlns:xlink="http://www.w3.org/1999/xlink">
    <title>icon-help</title>
    <g id="Page-1" stroke="none" stroke-width="1" fill="none" fill-rule="evenodd">
        <g id="help-icon" transform="translate(2.000000, 2.000000)">
            <path d="M31.897019,36.234773 L31.897019,34.551495 C32.015744,33.6655592 32.3051361,32.9272794 32.7651955,32.3366556 C33.2252549,31.7460317 33.752097,31.2218531 34.345722,30.7641196 C34.939347,30.3063861 35.5700736,29.8486526 36.2379017,29.3909192 C36.9057298,28.9331857 37.5141954,28.3794758 38.0632985,27.7297896 C38.6124016,27.0801034 39.072461,26.2975268 39.4434766,25.3820598 C39.8144922,24.4665928 40,23.3001107 40,21.8826135 C40,21.0262089 39.8144922,20.1033592 39.4434766,19.1140642 C39.072461,18.1247693 38.456575,17.2019195 37.5958188,16.345515 C36.7350626,15.4891104 35.5997548,14.772979 34.1898955,14.1971207 C32.7800361,13.6212625 31.0214221,13.3333333 28.9140534,13.3333333 C27.2815847,13.3333333 25.8049426,13.6064969 24.484127,14.1528239 C23.1633114,14.699151 22.0354239,15.4595792 21.1004646,16.4341085 C20.1655052,17.4086379 19.4383146,18.5603544 18.9188928,19.889258 C18.3994709,21.2181617 18.1249193,22.6799557 18.0952381,24.2746401 L18.0952381,24.2746401 L24.6399535,24.2746401 C24.6399535,23.4772979 24.7289973,22.7316353 24.9070848,22.0376523 C25.0851723,21.3436693 25.3597238,20.7382798 25.7307395,20.2214839 C26.1017551,19.7046881 26.5766551,19.2912514 27.1554394,18.9811739 C27.7342238,18.6710963 28.4243128,18.5160576 29.2257065,18.5160576 C30.4129565,18.5160576 31.3404955,18.8409007 32.0083237,19.4905869 C32.6761518,20.1402732 33.0100658,21.1443337 33.0100658,22.5027685 C33.0397471,23.3001107 32.8987611,23.9645626 32.587108,24.496124 C32.2754549,25.0276855 31.8673377,25.5149502 31.3627565,25.9579181 C30.8581752,26.4008859 30.3090721,26.8438538 29.7154472,27.2868217 C29.1218222,27.7297896 28.5578784,28.2539683 28.023616,28.8593577 C27.4893535,29.4647471 27.0218738,30.1956441 26.6211769,31.0520487 C26.2204801,31.9084533 25.9756098,32.9715762 25.886566,34.2414175 L25.886566,34.2414175 L25.886566,36.234773 L31.897019,36.234773 Z M32.253194,45.7142857 L32.253194,38.8925803 L25.2632598,38.8925803 L25.2632598,45.7142857 L32.253194,45.7142857 Z" id="?" fill="#FFFFFF" fill-rule="nonzero"></path>
            <circle id="Oval" stroke="#FFFFFF" stroke-width="4" cx="30" cy="30" r="28"></circle>
        </g>
    </g>
</svg>