<svg width="17" height="16" viewBox="0 0 17 16" fill="none" xmlns="http://www.w3.org/2000/svg">
<path fill-rule="evenodd" clip-rule="evenodd" d="M3 3H1V5V13V15H3H13V13V10C13 9.44772 12.5523 9 12 9C11.4477 9 11 9.44772 11 10V13L3 13V5L6 5C6.55228 5 7 4.55228 7 4C7 3.44772 6.55228 3 6 3H3Z" fill="#F6DD66"/>
<rect x="10.7782" y="2.42841" width="1" height="7" transform="rotate(45 10.7782 2.42841)" fill="#F6DD66"/>
<rect x="12.1924" y="3.84259" width="2" height="7" transform="rotate(45 12.1924 3.84259)" fill="#F6DD66"/>
<path d="M5.12131 8.08527L7.94973 10.9137L5.88507 11.3266C5.18535 11.4666 4.56843 10.8497 4.70837 10.1499L5.12131 8.08527Z" fill="#F6DD66"/>
<path d="M12.8995 0.307082C13.29 -0.083442 13.9232 -0.0834419 14.3137 0.307082L15.7279 1.7213C16.1184 2.11182 16.1184 2.74499 15.7279 3.13551L14.3137 4.54972L11.4853 1.7213L12.8995 0.307082Z" fill="#F6DD66"/>
</svg>
