<svg width="16" height="16" viewBox="0 0 16 16" fill="none" xmlns="http://www.w3.org/2000/svg">
<path d="M12.1924 5.12132C12.5829 4.7308 12.5829 4.09763 12.1924 3.70711C11.8019 3.31658 11.1687 3.31658 10.7782 3.70711L7.94975 6.53553L5.12132 3.70711C4.7308 3.31658 4.09763 3.31658 3.70711 3.70711C3.31658 4.09763 3.31658 4.7308 3.70711 5.12132L6.53553 7.94975L3.70711 10.7782C3.31658 11.1687 3.31658 11.8019 3.70711 12.1924C4.09763 12.5829 4.7308 12.5829 5.12132 12.1924L7.94975 9.36396L10.7782 12.1924C11.1687 12.5829 11.8019 12.5829 12.1924 12.1924C12.5829 11.8019 12.5829 11.1687 12.1924 10.7782L9.36396 7.94975L12.1924 5.12132Z" fill="#F6DD66"/>
</svg>
