<?xml version="1.0" encoding="UTF-8"?>
<svg width="64px" height="64px" viewBox="0 0 64 64" version="1.1" xmlns="http://www.w3.org/2000/svg" xmlns:xlink="http://www.w3.org/1999/xlink">
    <title>icon-save</title>
    <g id="Page-1" stroke="none" stroke-width="1" fill="none" fill-rule="evenodd">
        <g id="save-icon" transform="translate(12.000000, 1.000000)" fill="#FFFFFF" fill-rule="nonzero">
            <path d="M33.6842105,0 C37.1723247,0 40,3.39898108 40,7.59183673 L40,7.59183673 L40,36.5554847 C40,40.7483403 37.1723247,44.1473214 33.6838816,44.1473214 L33.6838816,44.1473214 L30.5263158,44.1465306 L30.5263158,54.4081633 C30.5263158,58.5057267 27.8257106,61.8450908 24.4473034,61.9947636 L24.4473034,61.9947636 L24.2105263,62 L6.31578947,62 C2.82767526,62 0,58.6010189 0,54.4081633 L0,54.4081633 L0,7.59183673 C0,3.39898108 2.82767526,0 6.31578947,0 L6.31578947,0 Z M16.0806452,3.875 C15.8380299,3.875 15.6034865,3.91846917 15.3816694,3.99955322 L15.3816694,3.99955322 L9.77962093,3.99955322 C9.55780383,3.91846917 9.32326044,3.875 9.08064516,3.875 C7.69993329,3.875 6.58064516,5.28283296 6.58064516,7.01948293 L6.58064516,7.01948293 L6.58064516,54.8156235 C6.58064516,56.5522734 7.69993329,57.9601064 9.08064516,57.9601064 L9.08064516,57.9601064 L9.23106651,57.9545082 L9.23064516,58 L16.2056452,58 L16.2055606,57.9562494 C17.5282392,57.8743841 18.5806452,56.4995882 18.5806452,54.8156235 L18.5806452,54.8156235 L18.5806452,7.01948293 C18.5806452,5.28283296 17.461357,3.875 16.0806452,3.875 Z M24.8709677,3.875 C23.089404,3.875 21.6451613,5.28283296 21.6451613,7.01948293 L21.6451613,7.01948293 L21.6451613,54.8156235 C21.6451613,56.5522734 23.089404,57.9601064 24.8709677,57.9601064 C26.6525315,57.9601064 28.0967742,56.5522734 28.0967742,54.8156235 L28.0967742,54.8156235 L28.0967742,7.01948293 C28.0967742,5.28283296 26.6525315,3.875 24.8709677,3.875 Z M34.4193548,3.875 L33.9677419,3.875 C32.3108877,3.875 30.9677419,5.21814575 30.9677419,6.875 L30.9677419,6.875 L30.9677419,37.8111702 C30.9677419,39.4680245 32.3108877,40.8111702 33.9677419,40.8111702 L33.9677419,40.8111702 L34.4193548,40.8111702 C36.0762091,40.8111702 37.4193548,39.4680245 37.4193548,37.8111702 L37.4193548,37.8111702 L37.4193548,6.875 C37.4193548,5.21814575 36.0762091,3.875 34.4193548,3.875 L34.4193548,3.875 Z" id="Combined-Shape"></path>
        </g>
    </g>
</svg>