<svg width="14" height="14" viewBox="0 0 14 14" fill="none" xmlns="http://www.w3.org/2000/svg">
<path fill-rule="evenodd" clip-rule="evenodd" d="M13 2C13 1.44772 12.5523 1 12 1H8H6V3C6 3.55228 6.44772 4 7 4C7.55228 4 8 3.55228 8 3H11V6C10.4477 6 10 6.44772 10 7C10 7.55228 10.4477 8 11 8H13V6V2ZM3 8V11H6C6 10.4477 6.44772 10 7 10C7.55228 10 8 10.4477 8 11V13H6H2C1.44772 13 1 12.5523 1 12V8V6H3C3.55228 6 4 6.44772 4 7C4 7.55228 3.55228 8 3 8ZM7.5 5.5C8.05228 5.5 8.5 5.94772 8.5 6.5V7.5C8.5 8.05228 8.05228 8.5 7.5 8.5H6.5C5.94772 8.5 5.5 8.05228 5.5 7.5V6.5C5.5 5.94772 5.94772 5.5 6.5 5.5H7.5Z" fill="#F6DD66"/>
</svg>
