<svg width="16" height="16" viewBox="0 0 16 16" fill="none" xmlns="http://www.w3.org/2000/svg">
<path fill-rule="evenodd" clip-rule="evenodd" d="M8 5C7.44772 5 7 4.55228 7 4V2H9H13C13.5523 2 14 2.44772 14 3V7V9H12C11.4477 9 11 8.55228 11 8C11 7.44772 11.4477 7 12 7V4H9C9 4.55228 8.55228 5 8 5ZM4 9V12H7C7 11.4477 7.44772 11 8 11C8.55228 11 9 11.4477 9 12V14H7H3C2.44772 14 2 13.5523 2 13V12.9993V9V7H4C4.55228 7 5 7.44772 5 8C5 8.55228 4.55228 9 4 9ZM8.5 6.5C9.05228 6.5 9.5 6.94772 9.5 7.5V8.5C9.5 9.05228 9.05229 9.5 8.5 9.5H7.5C6.94772 9.5 6.5 9.05228 6.5 8.5V7.5C6.5 6.94772 6.94772 6.5 7.5 6.5H8.5Z" fill="#F6DD66"/>
</svg>
