<svg width="16" height="16" viewBox="0 0 16 16" fill="none" xmlns="http://www.w3.org/2000/svg">
<path fill-rule="evenodd" clip-rule="evenodd" d="M8.83989 13.6799C8.36859 14.1067 7.63141 14.1067 7.16011 13.6799C6.50708 13.0885 5.86394 12.5475 5.25387 12.0342C2.87565 10.0335 1 8.45557 1 5.96663C1 3.77593 2.82817 2 5.08333 2C6.16596 2 7.15018 2.40928 7.88097 3.07725C7.92143 3.11424 7.96112 3.15202 8 3.19056C8.03888 3.15202 8.07857 3.11424 8.11903 3.07725C8.84982 2.40928 9.83404 2 10.9167 2C13.1718 2 15 3.77591 15 5.96661C15 8.45556 13.1244 10.0335 10.7461 12.0342C10.1361 12.5475 9.49292 13.0885 8.83989 13.6799Z" fill="#F6DD66"/>
</svg>
