<?xml version="1.0" encoding="UTF-8"?>
<svg width="64px" height="64px" viewBox="0 0 64 64" version="1.1" xmlns="http://www.w3.org/2000/svg" xmlns:xlink="http://www.w3.org/1999/xlink">
    <title>icon-help</title>
    <g id="Page-1" stroke="none" stroke-width="1" fill="none" fill-rule="evenodd">
        <g id="help-icon" transform="translate(11.000000, 11.000000)">
            <path d="M23.048,26.152 L23.048,24.936 C23.1333333,24.296 23.3413333,23.7626667 23.672,23.336 C24.0026667,22.9093333 24.3813333,22.5306667 24.808,22.2 C25.2346667,21.8693333 25.688,21.5386667 26.168,21.208 C26.648,20.8773333 27.0853333,20.4773333 27.48,20.008 C27.8746667,19.5386667 28.2053333,18.9733333 28.472,18.312 C28.7386667,17.6506667 28.872,16.808 28.872,15.784 C28.872,15.1653333 28.7386667,14.4986667 28.472,13.784 C28.2053333,13.0693333 27.7626667,12.4026667 27.144,11.784 C26.5253333,11.1653333 25.7093333,10.648 24.696,10.232 C23.6826667,9.816 22.4186667,9.608 20.904,9.608 C19.7306667,9.608 18.6693333,9.80533333 17.72,10.2 C16.7706667,10.5946667 15.96,11.144 15.288,11.848 C14.616,12.552 14.0933333,13.384 13.72,14.344 C13.3466667,15.304 13.1493333,16.36 13.128,17.512 L13.128,17.512 L17.832,17.512 C17.832,16.936 17.896,16.3973333 18.024,15.896 C18.152,15.3946667 18.3493333,14.9573333 18.616,14.584 C18.8826667,14.2106667 19.224,13.912 19.64,13.688 C20.056,13.464 20.552,13.352 21.128,13.352 C21.9813333,13.352 22.648,13.5866667 23.128,14.056 C23.608,14.5253333 23.848,15.2506667 23.848,16.232 C23.8693333,16.808 23.768,17.288 23.544,17.672 C23.32,18.056 23.0266667,18.408 22.664,18.728 C22.3013333,19.048 21.9066667,19.368 21.48,19.688 C21.0533333,20.008 20.648,20.3866667 20.264,20.824 C19.88,21.2613333 19.544,21.7893333 19.256,22.408 C18.968,23.0266667 18.792,23.7946667 18.728,24.712 L18.728,24.712 L18.728,26.152 L23.048,26.152 Z M23.304,33 L23.304,28.072 L18.28,28.072 L18.28,33 L23.304,33 Z" id="?" fill="#FFFFFF" fill-rule="nonzero"></path>
            <circle id="Oval" stroke="#FFFFFF" stroke-width="4" cx="21.5" cy="21.5" r="19.5"></circle>
        </g>
    </g>
</svg>