<svg width="16" height="16" viewBox="0 0 16 16" fill="none" xmlns="http://www.w3.org/2000/svg">
<path fill-rule="evenodd" clip-rule="evenodd" d="M8.7199 13.3059C8.31593 13.6825 7.68407 13.6825 7.2801 13.3059C6.72035 12.7841 6.16909 12.3067 5.64617 11.8538C3.6077 10.0885 2 8.69617 2 6.50002C2 4.56702 3.567 3 5.5 3C6.42796 3 7.27158 3.36114 7.89797 3.95053C7.93266 3.98316 7.96667 4.0165 8 4.05051C8.03333 4.0165 8.06734 3.98316 8.10203 3.95053C8.72842 3.36114 9.57204 3 10.5 3C12.433 3 14 4.567 14 6.5C14 8.69615 12.3923 10.0885 10.3538 11.8538C9.83091 12.3067 9.27965 12.7841 8.7199 13.3059Z" fill="#F6DD66"/>
</svg>
