<svg width="16" height="16" viewBox="0 0 16 16" fill="none" xmlns="http://www.w3.org/2000/svg">
<path d="M3.54545 3.18182L5.18182 1L6.81818 3.18182L6.27273 9.72727H4.09091L3.54545 3.18182Z" fill="#F6DD66"/>
<path d="M3 10.8182H7.36364V10.9091C7.36364 11.4614 6.91592 11.9091 6.36364 11.9091H4C3.44772 11.9091 3 11.4614 3 10.9091V10.8182Z" fill="#F6DD66"/>
<path d="M4.63636 11.9091H5.72727L6.09338 14.1058C6.18727 14.669 5.75288 15.1818 5.18182 15.1818V15.1818C4.61076 15.1818 4.17637 14.669 4.27025 14.1058L4.63636 11.9091Z" fill="#F6DD66"/>
<path d="M9.9091 3.18182L11.5455 1L13.1818 3.18182L12.6364 9.72727H10.4546L9.9091 3.18182Z" fill="#F6DD66"/>
<path d="M9.36365 10.8182H13.7273V10.9091C13.7273 11.4614 13.2796 11.9091 12.7273 11.9091H10.3636C9.81136 11.9091 9.36365 11.4614 9.36365 10.9091V10.8182Z" fill="#F6DD66"/>
<path d="M11 11.9091H12.0909L12.457 14.1058C12.5509 14.6691 12.1165 15.1818 11.5455 15.1818V15.1818C10.9744 15.1818 10.54 14.6691 10.6339 14.1058L11 11.9091Z" fill="#F6DD66"/>
</svg>
