<svg width="420" height="90" viewBox="0 0 420 90" fill="none" xmlns="http://www.w3.org/2000/svg">
<path d="M391.587 66.2394C388.502 66.2394 385.584 65.8444 382.833 65.0544C380.119 64.2644 377.851 63.1923 376.03 61.8381L378.539 54.954C380.286 56.1954 382.275 57.1735 384.505 57.8882C386.773 58.603 389.134 58.9603 391.587 58.9603C394.264 58.9603 396.179 58.5465 397.331 57.7189C398.521 56.8537 399.115 55.7816 399.115 54.5026C399.115 53.4117 398.706 52.5465 397.889 51.907C397.071 51.2675 395.639 50.722 393.595 50.2706L387.294 48.9164C380.268 47.4117 376.754 43.7251 376.754 37.8567C376.754 35.3363 377.424 33.1357 378.762 31.2548C380.1 29.3363 381.959 27.8504 384.338 26.7971C386.755 25.7438 389.543 25.2172 392.703 25.2172C395.416 25.2172 397.963 25.6121 400.342 26.4021C402.721 27.1921 404.692 28.3018 406.253 29.7313L403.744 36.1639C400.695 33.7188 396.996 32.4962 392.647 32.4962C390.305 32.4962 388.483 32.9664 387.182 33.9069C385.918 34.8097 385.286 35.9947 385.286 37.4618C385.286 38.5527 385.677 39.4367 386.457 40.1138C387.238 40.7909 388.595 41.3364 390.528 41.7502L396.829 43.1044C404.041 44.6844 407.647 48.2581 407.647 53.8255C407.647 56.3083 406.978 58.4901 405.64 60.371C404.338 62.2143 402.48 63.6625 400.063 64.7158C397.684 65.7315 394.859 66.2394 391.587 66.2394Z" fill="#333333"/>
<path d="M333.295 65.6186V25.8378H351.251C355.637 25.8378 359.02 26.9099 361.4 29.0541C363.779 31.1983 364.968 34.1889 364.968 38.0259C364.968 40.9977 364.206 43.4805 362.682 45.4743C361.195 47.4304 359.058 48.7658 356.269 49.4806C358.24 50.0824 359.857 51.5307 361.121 53.8254L367.478 65.6186H357.942L351.139 52.9226C350.582 51.9069 349.894 51.211 349.076 50.8348C348.258 50.421 347.292 50.2141 346.176 50.2141H341.938V65.6186H333.295ZM341.938 43.8943H349.689C354.336 43.8943 356.66 42.0134 356.66 38.2516C356.66 34.5275 354.336 32.6654 349.689 32.6654H341.938V43.8943Z" fill="#333333"/>
<path d="M281.217 65.6186L299.284 25.8378H306.254L324.321 65.6186H315.622L311.942 56.9853H293.596L289.971 65.6186H281.217ZM302.685 35.1482L296.496 50.1577H309.098L302.797 35.1482H302.685Z" fill="#333333"/>
<path d="M241.548 65.6186V25.8378H259.559C263.76 25.8378 266.994 26.7594 269.262 28.6027C271.567 30.4459 272.719 32.9663 272.719 36.1639C272.719 38.2705 272.199 40.0949 271.158 41.6372C270.117 43.142 268.667 44.2705 266.808 45.0228C269.039 45.6623 270.749 46.7909 271.939 48.4084C273.165 50.026 273.779 52.0197 273.779 54.3897C273.779 57.9257 272.552 60.6907 270.098 62.6844C267.682 64.6405 264.373 65.6186 260.173 65.6186H241.548ZM249.801 42.2015H258.054C262.292 42.2015 264.411 40.5463 264.411 37.236C264.411 33.9632 262.292 32.3268 258.054 32.3268H249.801V42.2015ZM249.801 59.1295H259.002C261.232 59.1295 262.868 58.6969 263.909 57.8317C264.95 56.9665 265.47 55.6499 265.47 53.8818C265.47 52.1514 264.95 50.8536 263.909 49.9884C262.868 49.1232 261.232 48.6906 259.002 48.6906H249.801V59.1295Z" fill="#333333"/>
<path d="M200.864 24.5811L213.537 60.7494H213.893L226.567 24.5811H230.448L215.695 65.6186H211.735L196.982 24.5811H200.864Z" fill="#333333"/>
<path d="M184.446 24.5811V65.6186H180.743V24.5811H184.446Z" fill="#333333"/>
<path d="M141.057 24.5811L152.285 42.3947H152.542L163.77 24.5811H168.147L155.097 45.0999L168.147 65.6186H163.77L152.542 48.0053H152.285L141.057 65.6186H136.681L149.929 45.0999L136.681 24.5811H141.057Z" fill="#333333"/>
<path d="M51.0511 13H73.2819C74.8191 13 76.0754 14.2626 76.0754 15.8327V38.3281C76.0754 39.8982 74.8191 41.1608 73.2819 41.1608H51.0511C49.5139 41.1608 48.2576 39.8982 48.2576 38.3281V15.8327C48.2576 14.2626 49.5139 13 51.0511 13Z" fill="#333333" stroke="black"/>
<path d="M51.0511 49.6593H73.2819C74.8191 49.6593 76.0754 50.9219 76.0754 52.492V74.9874C76.0754 76.5575 74.8191 77.8201 73.2819 77.8201H51.0511C49.5139 77.8201 48.2576 76.5575 48.2576 74.9874V52.492C48.2576 50.9219 49.5139 49.6593 51.0511 49.6593Z" fill="#333333" stroke="black"/>
<path d="M86.4557 31.3296H108.687C110.224 31.3296 111.48 32.5922 111.48 34.1623V56.6577C111.48 58.2278 110.224 59.4904 108.687 59.4904H86.4557C84.9185 59.4904 83.6623 58.2278 83.6623 56.6577V34.1623C83.6623 32.5922 84.9185 31.3296 86.4557 31.3296Z" fill="#333333" stroke="black"/>
<path d="M15.6464 31.3296H37.8772C39.4145 31.3296 40.6707 32.5922 40.6707 34.1623V56.6577C40.6707 58.2278 39.4145 59.4904 37.8772 59.4904H15.6464C14.1092 59.4904 12.853 58.2278 12.853 56.6577V34.1623C12.853 32.5922 14.1092 31.3296 15.6464 31.3296Z" fill="#333333" stroke="black"/>
</svg>
