<svg width="961" height="158" viewBox="0 0 961 158" fill="none" xmlns="http://www.w3.org/2000/svg">
<path d="M921.183 129C913.688 129 906.599 128.052 899.917 126.156C893.325 124.259 887.817 121.686 883.392 118.435L889.487 101.91C893.732 104.89 898.563 107.237 903.981 108.953C909.489 110.669 915.223 111.527 921.183 111.527C927.685 111.527 932.335 110.533 935.135 108.547C938.024 106.47 939.469 103.896 939.469 100.826C939.469 98.2074 938.476 96.1305 936.489 94.5954C934.502 93.0602 931.026 91.7509 926.059 90.6673L910.753 87.4164C893.686 83.8044 885.153 74.9549 885.153 60.868C885.153 54.8178 886.778 49.5352 890.029 45.0202C893.28 40.4148 897.795 36.8479 903.574 34.3195C909.444 31.7911 916.217 30.5269 923.892 30.5269C930.484 30.5269 936.67 31.475 942.449 33.3714C948.228 35.2677 953.014 37.9316 956.807 41.363L950.711 56.8044C943.307 50.9349 934.322 48.0001 923.757 48.0001C918.068 48.0001 913.643 49.1289 910.482 51.3864C907.412 53.5536 905.877 56.3981 905.877 59.9198C905.877 62.5385 906.825 64.6606 908.722 66.286C910.618 67.9115 913.914 69.2208 918.61 70.2141L933.915 73.465C951.434 77.2576 960.193 85.8362 960.193 99.2007C960.193 105.161 958.568 110.398 955.317 114.913C952.156 119.338 947.641 122.814 941.772 125.343C935.992 127.781 929.13 129 921.183 129Z" fill="#333333"/>
<path d="M779.588 127.51V32.0168H823.203C833.859 32.0168 842.076 34.5904 847.855 39.7376C853.635 44.8847 856.524 52.0636 856.524 61.2743C856.524 68.4081 854.673 74.368 850.971 79.1539C847.359 83.8496 842.166 87.0552 835.394 88.771C840.18 90.2158 844.108 93.6924 847.178 99.2007L862.619 127.51H839.457L822.932 97.0335C821.578 94.5954 819.907 92.9248 817.921 92.0218C815.934 91.0285 813.586 90.5318 810.877 90.5318H800.583V127.51H779.588ZM800.583 75.3613H819.411C830.698 75.3613 836.342 70.8462 836.342 61.8161C836.342 52.8763 830.698 48.4065 819.411 48.4065H800.583V75.3613Z" fill="#333333"/>
<path d="M653.086 127.51L696.972 32.0168H713.903L757.79 127.51H736.659L727.719 106.786H683.156L674.352 127.51H653.086ZM705.235 54.3663L690.199 90.3964H720.811L705.505 54.3663H705.235Z" fill="#333333"/>
<path d="M556.728 127.51V32.0168H600.479C610.683 32.0168 618.539 34.2292 624.047 38.654C629.646 43.0787 632.445 49.1289 632.445 56.8044C632.445 61.8613 631.181 66.2409 628.653 69.9432C626.124 73.5553 622.603 76.2643 618.088 78.0703C623.506 79.6054 627.659 82.3144 630.549 86.1974C633.529 90.0803 635.019 94.8663 635.019 100.555C635.019 109.043 632.039 115.681 626.079 120.467C620.21 125.162 612.173 127.51 601.969 127.51H556.728ZM576.775 71.2977H596.822C607.116 71.2977 612.263 67.3245 612.263 59.378C612.263 51.5218 607.116 47.5937 596.822 47.5937H576.775V71.2977ZM576.775 111.933H599.124C604.542 111.933 608.516 110.895 611.044 108.818C613.572 106.741 614.837 103.58 614.837 99.3362C614.837 95.1823 613.572 92.0669 611.044 89.99C608.516 87.9131 604.542 86.8746 599.124 86.8746H576.775V111.933Z" fill="#333333"/>
<path d="M457.904 29L488.688 115.822H489.554L520.338 29H529.766L493.931 127.51H484.311L448.476 29H457.904Z" fill="#333333"/>
<path d="M418.023 29V127.51H409.029V29H418.023Z" fill="#333333"/>
<path d="M312.63 29L339.903 71.7614H340.529L367.802 29H378.432L346.734 78.255L378.432 127.51H367.802L340.529 85.2296H339.903L312.63 127.51H302L334.179 78.255L302 29H312.63Z" fill="#333333"/>
<path d="M86 8C86 3.58172 89.5817 0 94 0H148C152.418 0 156 3.58172 156 8V62C156 66.4183 152.418 70 148 70H94C89.5817 70 86 66.4183 86 62V8Z" fill="#333333"/>
<path d="M86 96C86 91.5817 89.5817 88 94 88H148C152.418 88 156 91.5817 156 96V150C156 154.418 152.418 158 148 158H94C89.5817 158 86 154.418 86 150V96Z" fill="#333333"/>
<path d="M172 52C172 47.5817 175.582 44 180 44H234C238.418 44 242 47.5817 242 52V106C242 110.418 238.418 114 234 114H180C175.582 114 172 110.418 172 106V52Z" fill="#333333"/>
<path d="M0 52C0 47.5817 3.58172 44 8 44H62C66.4183 44 70 47.5817 70 52V106C70 110.418 66.4183 114 62 114H8C3.58172 114 0 110.418 0 106V52Z" fill="#333333"/>
</svg>
