<svg width="895" height="158" viewBox="0 0 895 158" fill="none" xmlns="http://www.w3.org/2000/svg">
<path d="M855.017 129C851.166 129 847.223 128.679 843.188 128.037C839.245 127.487 835.439 126.662 831.771 125.561C828.195 124.461 824.985 123.085 822.142 121.435C820.125 120.334 818.704 118.913 817.878 117.171C817.053 115.337 816.732 113.503 816.915 111.669C817.191 109.834 817.878 108.23 818.979 106.854C820.171 105.387 821.638 104.47 823.38 104.103C825.214 103.645 827.232 103.966 829.433 105.066C833.192 107.175 837.273 108.734 841.675 109.743C846.168 110.751 850.616 111.256 855.017 111.256C861.711 111.256 866.48 110.247 869.323 108.23C872.165 106.121 873.587 103.507 873.587 100.389C873.587 97.7299 872.578 95.6208 870.561 94.0619C868.543 92.503 865.013 91.1733 859.969 90.0729L844.426 86.7717C835.622 84.9376 829.066 81.8198 824.756 77.4182C820.538 72.9248 818.429 67.0559 818.429 59.8116C818.429 55.2265 819.391 51.0541 821.317 47.2944C823.243 43.5346 825.948 40.2792 829.433 37.5282C832.917 34.7772 837.044 32.668 841.812 31.2008C846.672 29.7336 851.991 29 857.768 29C862.903 29 867.947 29.6419 872.899 30.9257C877.851 32.1178 882.207 33.906 885.966 36.2902C887.8 37.3906 889.038 38.812 889.68 40.5543C890.414 42.2049 890.643 43.9014 890.368 45.6437C890.185 47.2944 889.497 48.7616 888.305 50.0454C887.204 51.3292 885.783 52.1545 884.041 52.5213C882.298 52.8881 880.189 52.4755 877.713 51.2834C874.687 49.7244 871.478 48.5782 868.085 47.8446C864.692 47.111 861.207 46.7442 857.631 46.7442C853.779 46.7442 850.478 47.2485 847.727 48.2572C845.068 49.2659 843.004 50.6873 841.537 52.5213C840.162 54.3553 839.474 56.4645 839.474 58.8487C839.474 61.508 840.437 63.663 842.362 65.3136C844.288 66.9642 847.635 68.2939 852.404 69.3026L867.947 72.6039C876.934 74.5296 883.628 77.6474 888.03 81.9574C892.431 86.1756 894.632 91.7694 894.632 98.7387C894.632 103.324 893.715 107.496 891.881 111.256C890.047 114.924 887.388 118.088 883.903 120.747C880.418 123.406 876.246 125.47 871.386 126.937C866.526 128.312 861.069 129 855.017 129Z" fill="#333333"/>
<path d="M735.71 128.725C732.226 128.725 729.567 127.762 727.733 125.836C725.898 123.911 724.981 121.205 724.981 117.721V41.3796C724.981 37.8033 725.898 35.0981 727.733 33.2641C729.658 31.4301 732.363 30.5131 735.848 30.5131H769.273C780.094 30.5131 788.439 33.1265 794.307 38.3535C800.176 43.5805 803.111 50.8707 803.111 60.2242C803.111 66.2765 801.781 71.5034 799.122 75.9051C796.462 80.3067 792.611 83.6997 787.567 86.0839C782.616 88.4681 776.517 89.6602 769.273 89.6602L770.374 87.3219H776.013C779.865 87.3219 783.212 88.2847 786.054 90.2104C788.989 92.0445 791.511 94.8872 793.62 98.7386L802.148 114.557C803.432 116.85 804.028 119.096 803.936 121.297C803.844 123.498 803.019 125.286 801.46 126.662C799.901 128.037 797.609 128.725 794.583 128.725C791.556 128.725 789.08 128.083 787.155 126.799C785.321 125.515 783.67 123.544 782.203 120.884L768.998 96.5378C767.622 93.9702 765.926 92.2279 763.909 91.3109C761.983 90.3939 759.599 89.9353 756.756 89.9353H746.302V117.721C746.302 121.205 745.385 123.911 743.551 125.836C741.809 127.762 739.195 128.725 735.71 128.725ZM746.302 74.5296H765.422C771.107 74.5296 775.371 73.3833 778.214 71.0908C781.148 68.7983 782.616 65.3595 782.616 60.7744C782.616 56.2811 781.148 52.8881 778.214 50.5956C775.371 48.3031 771.107 47.1568 765.422 47.1568H746.302V74.5296Z" fill="#333333"/>
<path d="M624.166 128.725C621.598 128.725 619.489 128.129 617.838 126.937C616.28 125.745 615.271 124.14 614.812 122.122C614.446 120.105 614.858 117.858 616.05 115.382L651.264 38.2159C652.731 35.0981 654.473 32.8514 656.49 31.4759C658.508 30.0087 660.846 29.2751 663.506 29.2751C666.165 29.2751 668.503 30.0087 670.521 31.4759C672.538 32.8514 674.235 35.0981 675.61 38.2159L711.098 115.382C712.291 117.858 712.703 120.151 712.336 122.26C712.061 124.277 711.144 125.882 709.585 127.074C708.026 128.175 706.009 128.725 703.533 128.725C700.415 128.725 697.985 127.991 696.243 126.524C694.592 125.057 693.125 122.764 691.841 119.646L683.588 100.527L692.116 106.441H634.757L643.286 100.527L635.17 119.646C633.794 122.856 632.327 125.194 630.768 126.662C629.301 128.037 627.1 128.725 624.166 128.725ZM663.231 53.209L645.624 95.1623L641.91 89.7978H684.964L681.25 95.1623L663.506 53.209H663.231Z" fill="#333333"/>
<path d="M537.318 127.487C533.742 127.487 530.991 126.524 529.065 124.598C527.139 122.673 526.176 119.922 526.176 116.345V41.6547C526.176 38.0784 527.139 35.3274 529.065 33.4016C530.991 31.4759 533.742 30.5131 537.318 30.5131H570.606C577.483 30.5131 583.352 31.5218 588.212 33.5392C593.072 35.5566 596.74 38.4452 599.216 42.205C601.784 45.9647 603.068 50.458 603.068 55.685C603.068 61.4622 601.417 66.3682 598.116 70.403C594.815 74.4379 590.276 77.1431 584.498 78.5186V76.3177C591.193 77.5099 596.374 80.1692 600.042 84.2957C603.801 88.3306 605.681 93.6034 605.681 100.114C605.681 108.734 602.701 115.474 596.74 120.334C590.78 125.103 582.573 127.487 572.119 127.487H537.318ZM546.534 111.669H569.23C574.732 111.669 578.767 110.614 581.335 108.505C583.902 106.304 585.186 103.094 585.186 98.8762C585.186 94.658 583.902 91.4943 581.335 89.3851C578.767 87.276 574.732 86.2215 569.23 86.2215H546.534V111.669ZM546.534 70.403H566.892C572.21 70.403 576.154 69.3943 578.721 67.3769C581.289 65.3595 582.573 62.3333 582.573 58.2985C582.573 54.3553 581.289 51.3751 578.721 49.3576C576.154 47.3402 572.21 46.3315 566.892 46.3315H546.534V70.403Z" fill="#333333"/>
<path d="M469.03 128.45C467.288 128.45 465.867 128.037 464.766 127.212C463.666 126.387 462.795 125.149 462.153 123.498L424.326 36.978C423.684 35.4191 423.501 34.1353 423.776 33.1265C424.051 32.0261 424.647 31.155 425.564 30.5131C426.573 29.8712 427.719 29.5502 429.003 29.5502C430.745 29.5502 432.029 29.9629 432.854 30.7882C433.771 31.5218 434.505 32.6222 435.055 34.0894L471.369 118.409H466.967L503.143 33.9519C503.785 32.5763 504.564 31.5218 505.481 30.7882C506.398 29.9629 507.682 29.5502 509.333 29.5502C510.617 29.5502 511.671 29.8712 512.497 30.5131C513.414 31.155 513.964 32.0261 514.147 33.1265C514.422 34.227 514.239 35.5108 513.597 36.978L475.77 123.498C475.128 125.149 474.257 126.387 473.157 127.212C472.148 128.037 470.773 128.45 469.03 128.45Z" fill="#333333"/>
<path d="M403.853 128.45C402.019 128.45 400.598 127.945 399.589 126.937C398.672 125.836 398.214 124.369 398.214 122.535V35.4649C398.214 33.5392 398.672 32.072 399.589 31.0633C400.598 30.0546 402.019 29.5502 403.853 29.5502C405.687 29.5502 407.063 30.0546 407.98 31.0633C408.989 32.072 409.493 33.5392 409.493 35.4649V122.535C409.493 124.369 409.035 125.836 408.117 126.937C407.2 127.945 405.779 128.45 403.853 128.45Z" fill="#333333"/>
<path d="M307.514 128.45C305.955 128.45 304.671 128.037 303.662 127.212C302.745 126.387 302.195 125.378 302.011 124.186C301.92 122.994 302.378 121.801 303.387 120.609L336.674 75.7675V80.0316L305.313 37.6657C304.304 36.2902 303.845 35.0064 303.937 33.8143C304.029 32.6222 304.533 31.6135 305.45 30.7882C306.459 29.9629 307.651 29.5502 309.027 29.5502C310.31 29.5502 311.411 29.8253 312.328 30.3755C313.245 30.9257 314.208 31.8886 315.216 33.2641L343.414 71.9161H339.838L367.899 33.2641C368.816 31.8886 369.733 30.9257 370.65 30.3755C371.567 29.8253 372.667 29.5502 373.951 29.5502C375.418 29.5502 376.61 29.9629 377.527 30.7882C378.536 31.5218 379.086 32.5305 379.178 33.8143C379.27 35.0064 378.811 36.2902 377.802 37.6657L346.441 80.0316V75.7675L379.728 120.609C380.645 121.801 381.012 122.994 380.829 124.186C380.737 125.378 380.232 126.387 379.315 127.212C378.398 128.037 377.16 128.45 375.602 128.45C374.409 128.45 373.309 128.129 372.3 127.487C371.383 126.937 370.42 126.02 369.412 124.736L339.288 83.608H343.69L313.566 124.736C312.649 126.02 311.686 126.937 310.677 127.487C309.669 128.129 308.614 128.45 307.514 128.45Z" fill="#333333"/>
<rect x="86" width="70" height="70" rx="8" fill="#333333"/>
<rect x="86" y="88" width="70" height="70" rx="8" fill="#333333"/>
<rect x="172" y="44" width="70" height="70" rx="8" fill="#333333"/>
<rect y="44" width="70" height="70" rx="8" fill="#333333"/>
</svg>
